<svg id="Calque_1" data-name="Calque 1" xmlns="http://www.w3.org/2000/svg" viewBox="0 0 481.89 481.89"><defs><style>.cls-1{fill:#f7d945;}.cls-2{fill:#b2a26d;}.cls-3{fill:#fef0ca;}</style></defs><path class="cls-1" d="M238,356.63c1.95,1.76,3.65.8,5.55-.3q87-50.32,174.09-100.57c.43-.24.86-.47,1.28-.72,1-.6,1.4-.27,1.36.84,0,.34,0,.7,0,1.05q0,36.63,0,73.26a3,3,0,0,1-1.68,3Q330.34,384,242.11,435c-1.23.71-2.26,1-3.34-.1a33.88,33.88,0,0,0,.22-4.39c0-22.7,0-45.39,0-68.09A28.72,28.72,0,0,0,238,356.63Z"/><path class="cls-1" d="M239.25,266.37c1.14.92,2.07.2,3-.36l88.62-51.17q43.13-24.9,86.27-49.78a14.33,14.33,0,0,0,1.26-.74c1.63-1.18,2-.45,1.85,1.17,0,.42,0,.84,0,1.26q0,36.23,0,72.43a2.86,2.86,0,0,1-1.62,2.94Q358.21,277,297.76,311.9,270,327.93,242.2,344c-1.29.75-2.4,1.09-3.54-.13a25.69,25.69,0,0,0,.33-4.38c0-23.76,0-47.52,0-71.28A2.83,2.83,0,0,1,239.25,266.37Z"/><path class="cls-2" d="M239.25,266.37a6.36,6.36,0,0,1,.42,2.66q0,36.24,0,72.48c0,.86.52,2.07-1,2.35-6.37-3.63-12.76-7.23-19.1-10.89q-78.49-45.3-157-90.57a3.41,3.41,0,0,1-1.93-3.48q.06-36.53,0-73c0-2.67,0-2.68,2.23-1.39l159,91.76C227.7,259.59,233.47,263,239.25,266.37Z"/><path class="cls-2" d="M238,356.63c2.11,1.32,1.66,3.44,1.66,5.4q0,35.24,0,70.48c0,.83.64,2.06-.87,2.42-9-5.13-17.94-10.23-26.88-15.39q-74.52-43-149-86a3.72,3.72,0,0,1-2.21-3.75c.07-24.42,0-48.85,0-73.27,0-2.37,0-2.38,2.07-1.2q86.84,50.13,173.67,100.26C237,355.93,237.47,356.29,238,356.63Z"/><path class="cls-1" d="M180.89,219.68l-36.67-21.14-81.33-47c-.48-.28-1-.57-1.45-.84-.83-.45-.73-.91,0-1.36.41-.26.85-.49,1.27-.74Q150.45,98,238.21,47.33c.95-.54,2-1.93,3.26-.45a32.06,32.06,0,0,0-.29,4.8q0,26.29,0,52.59a34.92,34.92,0,0,1-.08,3.55c-.17,1.62-1.41,2.31-2.63,3q-28.28,16.39-56.45,33c-.74.43-1.8.67-1.41,1.95a29.84,29.84,0,0,1,.12,3.78q0,32.37,0,64.75C180.7,216.09,181.18,217.87,180.89,219.68Z"/><path class="cls-1" d="M354.73,112.88A4.22,4.22,0,0,1,357.8,114a8.26,8.26,0,0,0-.75,3.86q0,32.11,0,64.22a7.84,7.84,0,0,0,.78,3.85c-6.21,3.63-12.4,7.29-18.63,10.89Q290.54,225,241.88,253.07c-1.45.84-2.52.9-3.63-.34,1.21-1,1.17-2.42,1.17-3.84q0-32.28,0-64.57c0-1.38-.22-2.82.64-4.06,3.77-2.93,8.05-5,12.14-7.45q22.2-13,44.4-25.91,27.28-15.9,54.55-31.84C352.36,114.36,353.52,113.58,354.73,112.88Z"/><path class="cls-3" d="M354.73,112.88c0,.89-.73,1.1-1.32,1.44l-77.6,45.32-34.89,20.41c-.91.47-1.6-.1-2.31-.52-17.49-10.25-35-20.4-52.51-30.68-2.09-1.23-4.45-2.07-6.06-4-.36-.42,0-.62.28-.79q29.12-16.91,58.23-33.83a5.12,5.12,0,0,0,2-1.47c1.49-1.63,3.53-2.46,5.38-3.54l44.45-25.94c1.33-.78,2.59-2,4.4-1.32q19.66,11.43,39.32,22.87Q344.45,106.81,354.73,112.88Z"/><path class="cls-2" d="M180,144.81c7.85,4.56,15.71,9.09,23.54,13.66q18,10.51,36,21.05a10.64,10.64,0,0,0,1.36.53c-1.09.71-.83,1.82-.83,2.84q0,34,0,68.08c0,1.47-.21,2.27-1.87,1.76-6.35-3.62-12.7-7.21-19-10.85q-18.48-10.63-36.94-21.29c-.48-.28-.92-.61-1.38-.91a6.08,6.08,0,0,1-.85-3.57Q180.07,180.46,180,144.81Z"/><path class="cls-2" d="M357.83,186c-1,0-1.57-.41-1.45-1.52,0-.41,0-.83,0-1.25q0-33.39,0-66.79c0-1-.44-2.41,1.41-2.37,7.52,4.29,15,8.55,22.54,12.87q18.6,10.71,37.18,21.48a10.1,10.1,0,0,0,.91.51c1.6.72,1.71,1.31,0,2.23-4.27,2.37-8.47,4.87-12.71,7.32l-46.62,26.92A14.17,14.17,0,0,1,357.83,186Z"/><path class="cls-2" d="M294.79,77.92c-2.42.21-4.18,1.83-6.14,3Q265.43,94.38,242.26,108c-.53.31-1.13.51-1.7.77q0-30-.05-60.1c0-.75-.18-1.61,1-1.74q9.92,5.64,19.81,11.3,15.72,9,31.39,18.1A4.77,4.77,0,0,1,294.79,77.92Z"/></svg>